<?xml version="1.0" encoding="UTF-8" standalone="no"?>
<svg width="162px" height="20px" viewBox="0 0 162 20" version="1.1" xmlns="http://www.w3.org/2000/svg" xmlns:xlink="http://www.w3.org/1999/xlink" xmlns:sketch="http://www.bohemiancoding.com/sketch/ns">
    <!-- Generator: Sketch 3.2.2 (9983) - http://www.bohemiancoding.com/sketch -->
    <title>Artboard 1</title>
    <desc>Created with Sketch.</desc>
    <defs></defs>
    <g id="Page-1" stroke="none" stroke-width="1" fill="none" fill-rule="evenodd" sketch:type="MSPage">
        <g id="Artboard-1" sketch:type="MSArtboardGroup" fill="#FFFFFF">
            <g id="fox" sketch:type="MSLayerGroup">
                <circle id="Oval" sketch:type="MSShapeGroup" cx="14.381" cy="10.522" r="3.975"></circle>
                <path d="M23.052,3.812 L20.486,3.812 L18.912,1.868 L18.894,1.854 L18.882,1.84 C18.514,1.419 18.081,1.152 17.519,1.152 L11.202,1.152 C10.6,1.152 10.133,1.446 9.758,1.917 L9.758,1.924 L8.237,3.812 L2.613,3.812 C1.509,3.812 0.617,4.68 0.617,5.785 L0.617,17.015 C0.617,18.12 1.509,19.017 2.613,19.017 L23.052,19.017 C24.152,19.017 25.048,18.121 25.048,17.015 L25.048,5.785 C25.048,4.68 24.152,3.812 23.052,3.812 L23.052,3.812 Z M4.661,9.8 C3.644,9.8 2.82,8.977 2.82,7.959 C2.82,6.942 3.644,6.118 4.661,6.118 C5.679,6.118 6.503,6.943 6.503,7.959 C6.502,8.976 5.678,9.8 4.661,9.8 L4.661,9.8 Z M14.381,16.532 C11.062,16.532 8.37,13.843 8.37,10.522 C8.37,7.203 11.061,4.512 14.381,4.512 C17.701,4.512 20.391,7.202 20.391,10.522 C20.391,13.843 17.701,16.532 14.381,16.532 L14.381,16.532 Z" id="Shape" sketch:type="MSShapeGroup"></path>
            </g>
            <path d="M32.0927734,17 L36.6015625,3.69628906 L39.0693359,3.69628906 L43.5688477,17 L40.9155273,17 L39.9414062,13.8642578 L35.7202148,13.8642578 L34.7553711,17 L32.0927734,17 Z M36.425293,11.5820312 L39.2363281,11.5820312 L37.8354492,6.97119141 L36.425293,11.5820312 Z M47.9595613,17 L47.9595613,3.69628906 L50.5664949,3.69628906 L55.4463778,12.4819336 L55.4463778,3.69628906 L57.9141512,3.69628906 L57.9141512,17 L55.3164949,17 L50.4366121,8.22363281 L50.4366121,17 L47.9595613,17 Z M63.9191227,17 L63.9191227,3.69628906 L66.5260563,3.69628906 L71.4059391,12.4819336 L71.4059391,3.69628906 L73.8737125,3.69628906 L73.8737125,17 L71.2760563,17 L66.3961735,8.22363281 L66.3961735,17 L63.9191227,17 Z M78.2644262,17 L82.7732153,3.69628906 L85.2409887,3.69628906 L89.7405005,17 L87.0871801,17 L86.113059,13.8642578 L81.8918676,13.8642578 L80.9270239,17 L78.2644262,17 Z M82.5969458,11.5820312 L85.4079809,11.5820312 L84.007102,6.97119141 L82.5969458,11.5820312 Z M100.767045,11.9995117 L100.767045,9.94921875 L104.255326,9.94921875 L104.255326,6.45166016 L106.314897,6.45166016 L106.314897,9.94921875 L109.803178,9.94921875 L109.803178,11.9995117 L106.314897,11.9995117 L106.314897,15.4970703 L104.255326,15.4970703 L104.255326,11.9995117 L100.767045,11.9995117 Z M120.848277,5.97851562 L120.848277,3.69628906 L130.691539,3.69628906 L130.691539,5.97851562 L127.008433,5.97851562 L127.008433,17 L124.54066,17 L124.54066,5.97851562 L120.848277,5.97851562 Z M133.523659,17 L138.032448,3.69628906 L140.500221,3.69628906 L144.999733,17 L142.346413,17 L141.372292,13.8642578 L137.1511,13.8642578 L136.186256,17 L133.523659,17 Z M137.856178,11.5820312 L140.667213,11.5820312 L139.266335,6.97119141 L137.856178,11.5820312 Z M149.390447,17 L149.390447,3.69628906 L152.164372,3.69628906 L155.300115,11.9995117 L158.435857,3.69628906 L161.209783,3.69628906 L161.209783,17 L158.742009,17 L158.742009,8.78955078 L156.200017,15.784668 L154.40949,15.784668 L151.867497,8.78955078 L151.867497,17 L149.390447,17 Z" id="ANNA-+-TAM" sketch:type="MSShapeGroup"></path>
        </g>
    </g>
</svg>