<svg width="162" height="20" viewBox="0 0 162 20" xmlns="http://www.w3.org/2000/svg" xmlns:sketch="http://www.bohemiancoding.com/sketch/ns"><title>Artboard 1</title><desc>Created with Sketch.</desc><g sketch:type="MSArtboardGroup" fill="#fff"><g sketch:type="MSLayerGroup"><circle sketch:type="MSShapeGroup" cx="14.381" cy="10.522" r="3.975"/><path d="M23.052 3.812h-2.566l-1.574-1.944-.018-.014-.012-.014c-.368-.421-.801-.688-1.363-.688h-6.317c-.602 0-1.069.294-1.444.765v.007l-1.521 1.888h-5.624c-1.104 0-1.996.868-1.996 1.973v11.23c0 1.105.892 2.002 1.996 2.002h20.439c1.1 0 1.996-.896 1.996-2.002v-11.23c0-1.105-.896-1.973-1.996-1.973zm-18.391 5.988c-1.017 0-1.841-.823-1.841-1.841 0-1.017.824-1.841 1.841-1.841 1.018 0 1.842.825 1.842 1.841-.001 1.017-.825 1.841-1.842 1.841zm9.72 6.732c-3.319 0-6.011-2.689-6.011-6.01 0-3.319 2.691-6.01 6.011-6.01 3.32 0 6.01 2.69 6.01 6.01 0 3.321-2.69 6.01-6.01 6.01z" sketch:type="MSShapeGroup"/></g><text sketch:type="MSTextLayer" font-family="Apercu" font-size="19" font-weight="bold" letter-spacing="2.591"><tspan x="32" y="17">ANNA + TAM</tspan></text></g></svg>