<svg xmlns="http://www.w3.org/2000/svg" width="160.717" height="18.52" viewBox="-34.383 23.835 160.717 18.52" enable-background="new -34.383 23.835 160.717 18.52"><circle fill="#fff" cx="-20.619" cy="33.522" r="3.975"/><path fill="#fff" d="M-11.948 26.812h-2.566l-1.574-1.944-.018-.014-.012-.014c-.368-.421-.801-.688-1.363-.688h-6.317c-.602 0-1.069.294-1.444.765v.007l-1.521 1.888h-5.624c-1.104 0-1.996.868-1.996 1.973v11.23c0 1.105.892 2.002 1.996 2.002h20.439c1.1 0 1.996-.896 1.996-2.002v-11.23c0-1.105-.896-1.973-1.996-1.973zm-18.391 5.988c-1.017 0-1.841-.823-1.841-1.841 0-1.017.824-1.841 1.841-1.841 1.018 0 1.842.825 1.842 1.841-.001 1.017-.825 1.841-1.842 1.841zm9.72 6.732c-3.319 0-6.011-2.689-6.011-6.01 0-3.319 2.691-6.01 6.011-6.01s6.01 2.69 6.01 6.01c0 3.321-2.69 6.01-6.01 6.01z"/><g fill="#fff"><path d="M2.276 33.931v8.042h-2.029v-17.758h6.088v1.624h-4.059v6.469h3.679v1.624h-3.679zM16.28 29.517v7.153c0 2.148-.342 3.633-1.027 4.453-.685.82-1.666 1.23-2.942 1.23-1.277 0-2.259-.41-2.942-1.23-.686-.82-1.027-2.305-1.027-4.453v-7.153c0-2.147.342-3.631 1.027-4.453.684-.82 1.665-1.23 2.942-1.23 1.276 0 2.258.41 2.942 1.23.685.822 1.027 2.306 1.027 4.453zm-2.004 7.535v-7.915c0-2.436-.652-3.653-1.953-3.653-.627 0-1.113.262-1.459.787-.347.524-.521 1.48-.521 2.867v7.915c0 1.387.174 2.343.521 2.866.346.524.832.786 1.459.786 1.302.001 1.953-1.218 1.953-3.653zM20.365 24.215l2.385 6.368 2.358-6.368h1.929l-3.399 8.727 3.398 9.031h-1.979l-2.485-6.57-2.461 6.57h-1.929l3.477-9.006-3.273-8.752h1.979zM39.165 41.973l-.787-4.617h-3.578l-.762 4.617h-2.029l3.248-17.758h2.689l3.246 17.758h-2.027zm-2.563-15.196l-1.523 8.956h3.02l-1.497-8.956zM45.429 41.973h-1.978v-17.758h2.104l4.135 12.989v-12.989h1.979v17.758h-2.105l-4.135-12.963v12.963zM55.121 41.973v-17.758h3.45c1.285 0 2.273.41 2.968 1.23.693.821 1.04 2.305 1.04 4.453v6.393c0 2.146-.346 3.631-1.04 4.451-.693.82-1.683 1.23-2.968 1.23h-3.45v.001zm5.454-5.226v-7.28c0-2.418-.668-3.627-2.003-3.627h-1.421v14.536h1.421c1.335-.001 2.003-1.209 2.003-3.629zM71.612 33.931v8.042h-2.031v-17.758h6.091v1.624h-4.06v6.469h3.678v1.624h-3.678zM83.433 41.973l-.786-4.617h-3.576l-.76 4.617h-2.031l3.247-17.758h2.689l3.247 17.758h-2.03zm-2.561-15.196l-1.523 8.956h3.021l-1.498-8.956zM88 24.215l2.537 14.816 2.537-14.816h2.029l-3.299 17.758h-2.536l-3.298-17.758h2.03zM104.948 29.517v7.153c0 2.148-.344 3.633-1.027 4.453-.686.82-1.666 1.23-2.943 1.23s-2.258-.41-2.942-1.23-1.027-2.305-1.027-4.453v-7.153c0-2.147.342-3.631 1.027-4.453.685-.82 1.664-1.23 2.942-1.23 1.277 0 2.258.41 2.943 1.23.683.822 1.027 2.306 1.027 4.453zm-2.006 7.535v-7.915c0-2.436-.65-3.653-1.952-3.653-.627 0-1.113.262-1.458.787-.348.524-.521 1.48-.521 2.867v7.915c0 1.387.174 2.343.521 2.866.345.524.831.786 1.458.786 1.302.001 1.952-1.218 1.952-3.653zM113.725 24.215h2.004v12.456c0 2.148-.342 3.633-1.026 4.453-.687.82-1.653 1.23-2.905 1.23s-2.22-.41-2.904-1.23c-.686-.82-1.027-2.305-1.027-4.453v-12.456h2.004v12.836c0 1.37.168 2.322.507 2.854.338.532.808.798 1.408.798s1.073-.266 1.421-.798c.346-.532.52-1.484.52-2.854v-12.836h-.002zM119.002 41.973v-17.758h3.146c1.251 0 2.224.397 2.918 1.193.692.795 1.039 2.224 1.039 4.287v.127c0 2.572-.626 4.202-1.877 4.896l2.105 7.255h-2.08l-1.979-6.798h-1.243v6.798h-2.029zm5.099-11.897v-.762c0-1.302-.174-2.207-.52-2.714-.347-.508-.825-.761-1.433-.761h-1.117v7.736h1.117c1.303 0 1.953-1.165 1.953-3.499z"/></g></svg>