<svg xmlns="http://www.w3.org/2000/svg" width="474.805" height="478.391" viewBox="0 0 474.805 478.391"><g fill="#B9B9B9"><path d="M33.436 227.523l.102-21.552 27.225.129c3.389 7.929 5.066 15.773 5.024 23.557-.054 10.64-3.196 19.118-9.439 25.437-6.229 6.336-13.904 9.469-23.01 9.426-9.587-.045-17.553-3.391-23.899-10.008-6.348-6.616-9.485-14.885-9.439-24.807.021-3.621.43-7.047 1.228-10.298.792-3.232 2.25-7.338 4.353-12.288l9.381.043c-4.479 7.636-6.735 15.224-6.781 22.761-.033 7.022 2.327 12.947 7.085 17.775 4.755 4.838 10.614 7.272 17.572 7.305 7.296.033 13.271-2.328 17.914-7.121 4.653-4.778 7.005-10.964 7.042-18.535.018-3.677-.804-8.083-2.468-13.197l-.269-.875-13.381-.068-.063 12.357-8.177-.041zM22.493 135.467l17.556-31.892 7.171 3.944-13.123 23.844 17.146 9.442 12.693-23.029 7.215 3.968-12.692 23.035 17.479 9.625 13.552-24.613 7.16 3.952-17.976 32.659-56.181-30.935zM137.703 21.13l7.54-4.402 32.396 55.461-6.835 3.988-62.021-21.058 24.947 42.718-7.466 4.352-32.39-55.456 6.427-3.759 62.555 21.235-25.153-43.079zM220.321.021l36.408-.021v8.187l-27.213.011.011 19.584 26.303-.015.001 8.229-26.294.014.014 19.951 28.08-.011.006 8.186-37.278.014-.038-64.129zM299.954 73.217l30.811-56.355 14.12 7.721c5.691 3.115 9.453 7.003 11.256 11.651 1.81 4.66 1.386 9.397-1.243 14.207-1.792 3.285-4.16 5.674-7.116 7.165-2.943 1.5-6.276 2.001-9.979 1.509 1.143 2.166 2.025 4.74 2.629 7.729.604 2.982 1.077 7.87 1.419 14.654.212 4.28.466 7.542.771 9.805l.774 5.666-9.599-5.253-.433-5.053c0-.176-.044-.496-.107-.951l-.357-3.075-.237-5.489-.301-5.872c-.403-3.224-.915-5.898-1.557-8.026-.634-2.135-1.354-3.797-2.143-5.006-.782-1.22-2.494-2.547-5.139-3.992l-2.098-1.149-13.405 24.522-8.066-4.408zm37.544-43.764l-2.417-1.318-9.729 17.789 3.062 1.679c4.092 2.231 7.083 3.415 8.994 3.545 1.894.128 3.656-.273 5.276-1.229 1.619-.95 2.919-2.32 3.896-4.125.983-1.773 1.388-3.634 1.232-5.595-.15-1.941-.924-3.685-2.302-5.209-1.388-1.532-4.061-3.376-8.012-5.537zM436.76 110.723l3.37 5.521-40.167 58.212-4.902-8.036 11.79-17.217-14.258-23.396-20.423 3.057-4.926-8.069 69.516-10.072zm-24.876 30.99l14.463-20.958-24.865 3.905 10.402 17.053zM474.804 215.571l-.008 9.186-55.851-.038-.02 28.913-8.369-.006.021-38.093 64.227.038zM55.426 347.184l.169-8.166c.122-5.143.831-9.158 2.147-12.051 1.309-2.904 3.415-5.203 6.339-6.895 4.374-2.551 8.808-3.084 13.298-1.629 4.492 1.451 8.146 4.602 10.955 9.467 2.695 4.631 3.854 9.643 3.492 15.021l-9.03 5.237c1.536-6.237.962-11.666-1.718-16.278-1.5-2.599-3.341-4.377-5.511-5.359-2.173-.969-4.192-.908-6.07.17-1.662.971-2.862 2.482-3.601 4.559-.738 2.072-1.116 4.937-1.136 8.594l-.072 8.152c-.122 9.121-3.307 15.504-9.569 19.125-4.451 2.584-8.938 3.191-13.452 1.822-4.502-1.365-8.151-4.439-10.919-9.215-3.176-5.479-4.392-11.465-3.628-17.93l10.104-5.854c-2.956 7.451-2.795 13.994.478 19.642 1.446 2.495 3.344 4.17 5.688 5.024 2.35.851 4.568.687 6.654-.537 3.38-1.956 5.174-6.249 5.382-12.899zM122.703 373.256l45.552 28.352-4.321 6.949-19.011-11.83-29.659 47.656-7.846-4.885 29.658-47.658-18.695-11.633 4.322-6.951zM236.659 412.51c9.921-.02 18.188 3.1 24.808 9.357 6.618 6.27 9.938 14.139 9.969 23.598.021 9.478-3.285 17.324-9.938 23.551-6.641 6.23-15.038 9.353-25.169 9.375-9.677.025-17.739-3.053-24.202-9.246-6.463-6.176-9.707-13.954-9.739-23.303-.021-9.6 3.202-17.541 9.679-23.836 6.478-6.309 14.676-9.464 24.592-9.496zm.388 8.74c-7.343.012-13.38 2.338-18.094 6.934-4.718 4.627-7.061 10.498-7.047 17.64.021 6.922 2.412 12.678 7.165 17.262 4.751 4.582 10.699 6.867 17.833 6.854 7.17-.025 13.139-2.382 17.912-7.078 4.782-4.716 7.166-10.56 7.148-17.539-.023-6.812-2.434-12.523-7.236-17.154-4.804-4.633-10.7-6.946-17.681-6.919zM346.457 451.667l-34.688-54.049 13.536-8.695c5.479-3.506 10.681-4.937 15.633-4.282 4.944.641 8.9 3.272 11.867 7.883 2.021 3.151 2.982 6.387 2.877 9.688-.098 3.301-1.254 6.465-3.464 9.492 2.461.027 5.146.484 8.049 1.395 2.902.885 7.424 2.814 13.543 5.771 3.854 1.866 6.845 3.198 8.974 4.029l5.35 2.018-9.213 5.914-4.646-2.041c-.157-.088-.445-.195-.882-.359l-2.874-1.168-4.93-2.405-5.307-2.558c-3.016-1.194-5.608-2.024-7.786-2.481-2.169-.457-3.977-.637-5.421-.525-1.451.109-3.434.969-5.961 2.602l-2.012 1.296 15.095 23.522-7.74 4.953zm-20.408-53.926l-2.322 1.479 10.95 17.07 2.942-1.893c3.924-2.521 6.398-4.572 7.424-6.178 1.025-1.609 1.508-3.354 1.458-5.224-.063-1.875-.647-3.687-1.747-5.41-1.099-1.696-2.54-2.95-4.327-3.752-1.798-.803-3.688-.961-5.688-.478-1.999.493-4.9 1.942-8.69 4.386zM380.553 337.293l17.312-32.027 7.209 3.896-12.961 23.928 17.229 9.326 12.516-23.129 7.232 3.922-12.508 23.121 17.543 9.494 13.371-24.695 7.192 3.895-17.74 32.789-56.395-30.52z"/></g></svg>